<svg width="140" height="140" viewBox="0 0 140 140" fill="none" xmlns="http://www.w3.org/2000/svg">
    <circle cx="70" cy="70" r="50" transform="rotate(53.2131 70 70)" fill="#FF0000"/>
    <circle cx="70" cy="70" r="40" transform="rotate(53.2131 70 70)" fill="white"/>
    <path d="M87.9652 94.026C94.3373 89.2614 98.5557 82.1605 99.6923 74.2857C100.829 66.4108 98.7907 58.4069 94.0261 52.0348C89.2614 45.6627 82.1606 41.4443 74.2857 40.3077C66.4108 39.1711 58.4069 41.2093 52.0348 45.9739L70 70L87.9652 94.026Z" fill="#FF0000"/>
    <circle cx="70" cy="70" r="20" transform="rotate(53.2131 70 70)" fill="white"/>
    <path d="M75.9884 78.0087C74.9367 78.7951 73.7404 79.3666 72.4678 79.6907C71.1952 80.0148 69.8712 80.085 68.5715 79.8974C67.2717 79.7098 66.0216 79.2681 64.8926 78.5973C63.7636 77.9266 62.7777 77.0401 61.9913 75.9884C61.2049 74.9367 60.6334 73.7404 60.3093 72.4678C59.9852 71.1952 59.915 69.8712 60.1026 68.5714C60.2902 67.2717 60.7319 66.0216 61.4027 64.8926C62.0734 63.7636 62.9599 62.7777 64.0116 61.9913L70 70L75.9884 78.0087Z" fill="#FF0000"/>
</svg>
